<?xml version="1.0" encoding="utf-8"?>
<svg version="1.1" id="Capa_1" xmlns="http://www.w3.org/2000/svg" xmlns:xlink="http://www.w3.org/1999/xlink" x="0px" y="0px"
	 viewBox="0 0 324.4 203" style="enable-background:new 0 0 324.4 203;" xml:space="preserve">
<g>
	<path d="M136.5,105.9c-1.6-5.9-3.9-11.3-6.7-16.2c4.6-6.6,8.4-13.6,12.3-20.6c1-1.9,0.3-5.2-2.2-5.5c-5.5-0.8-11-1.3-16.6-0.8
		c-4.8,0.5-4.8,8,0,7.5c3.2-0.3,6.4-0.3,9.6,0c-2.4,4.3-4.8,8.5-7.5,12.6c-12.1-16.6-29.9-26.7-42.7-32.2c-5.1-2.2-9.3-3.7-12.2-4.5
		c3.5-9.6,8.1-18.3,14.3-23.6c4.5-3.9,9.3-5.6,14.8-5.4c0.4,0,0.9,0,1.4,0.1c1.9,0.2,3.6-1.2,3.8-3.1c0.2-1.9-1.2-3.6-3.1-3.8
		c-8-0.8-15.2,1.5-21.5,7c-10.6,9.2-17,26-20.9,42.3c-0.8,0-1.6-0.1-2.4-0.1c-23.4,0-42.4,19-42.4,42.4c0,23.4,19,42.4,42.4,42.4
		s42.4-19,42.4-42.4c0-16.5-9.5-30.8-23.3-37.8l-7.6,0.2l4.5,6c11.5,5.8,19.5,17.8,19.5,31.6c0,19.5-15.9,35.4-35.4,35.4
		c-19.5,0-35.4-15.9-35.4-35.4c0-19.5,15.9-35.4,35.4-35.4c0.3,0,0.6,0,0.9,0c-3.6,18.1-4.3,33.9-4.4,35.2c-0.1,1.9,1.4,3.6,3.4,3.6
		c0,0,0.1,0,0.1,0c1.9,0,3.4-1.5,3.5-3.4c0-0.1,0.1-3.3,0.6-8.2c0.6-6.5,1.7-16.1,3.8-26.4c0.2-1.1,0.5-2.3,0.7-3.4
		c0.2-1.1,0.5-2.3,0.8-3.4c0.6-2.6,1.3-5.2,2.1-7.7c0.7,0.2,1.4,0.5,2.2,0.7c2.4,0.8,5.5,1.9,9,3.4c16.4,6.9,41.9,22,49.9,49.9
		c0.3,1.1,0.6,2.2,0.9,3.4c0.3,1.1,0.5,2.3,0.7,3.5c0.4,2.4,0.7,4.8,0.8,7.3c0.1,1.3,0.1,2.6,0.1,4c0,1.9,1.6,3.5,3.5,3.5
		c1.9,0,3.5-1.6,3.5-3.5c0-4.2-0.3-8.1-1-11.9c5.5,1.2,9.7,6.1,9.7,11.9c0,6.7-5.5,12.2-12.2,12.2s-12.2-5.5-12.2-12.2
		c0-3.6,1.6-6.8,4-9l2.6-7.1l-7.3,1.9c-3.9,3.5-6.3,8.6-6.3,14.2c0,10.6,8.6,19.2,19.2,19.2c10.6,0,19.2-8.6,19.2-19.2
		C154.8,114.8,146.7,106.4,136.5,105.9z"/>
	<g>
		<path d="M173.8,121.4c0.2,9.7,5,15.9,13.6,15.9c5.7,0,8.9-2.9,10.8-7.1c0.7-1.4,1.7-2,2.9-2c0.6,0,1.1,0.2,1.7,0.3
			c1.3,0.4,2.5,1.3,2.5,2.8c0,0.5-0.1,1-0.4,1.4c-2.5,5.2-7.1,10.5-17.4,10.5c-13,0-20.5-9.2-20.5-22.9c0-13.7,7.1-23.3,20.1-23.3
			c11.6,0,18.1,9,18.9,19.4c0,0.2,0,0.4,0,0.6c0,2.9-1.5,4.4-4,4.4H173.8z M197.3,115.6c0.9,0,1.2-0.3,1.2-1c0-0.1,0-0.2,0-0.4
			c-1-5.6-4.4-11.4-11.6-11.4c-7.6,0-11.7,5.1-12.8,12.8H197.3z"/>
		<path d="M253.6,135.1c1.9,0,2.9,1.4,2.9,3.3s-1,3.6-2.9,3.6h-36.1c-3,0-4.8-1.6-4.8-4.8c0-2.8,1.7-6.7,3-9
			c2.9-5.5,7.6-10.4,15.1-15.2l5.5-3.6c7.8-5.1,11.1-8.2,11.1-14.2c0-5.9-4.9-9.5-12.4-9.5c-9.3,0-12.2,5.3-13.6,10.9
			c-0.5,1.7-1.9,2.5-3.5,2.5c-0.4,0-0.8,0-1.2-0.1c-1.7-0.4-3-1.5-3-3.2c0-0.4,0.1-0.8,0.2-1.2c0.8-3.4,2.5-7,5.2-9.7
			c3.6-3.5,8.6-5.7,16.3-5.7c12,0,19.7,6.3,19.7,16.3c0,9.7-6.1,14-13.3,18.5l-5.2,3.2c-8.8,5.5-13.9,10.8-15.8,17.9H253.6z"/>
		<path d="M271,121.4c0.2,9.7,5,15.9,13.6,15.9c5.7,0,8.9-2.9,10.8-7.1c0.7-1.4,1.7-2,2.9-2c0.6,0,1.1,0.2,1.7,0.3
			c1.3,0.4,2.5,1.3,2.5,2.8c0,0.5-0.1,1-0.4,1.4c-2.5,5.2-7.1,10.5-17.4,10.5c-13,0-20.5-9.2-20.5-22.9c0-13.7,7.1-23.3,20.1-23.3
			c11.6,0,18.1,9,18.9,19.4c0,0.2,0,0.4,0,0.6c0,2.9-1.5,4.4-4,4.4H271z M294.4,115.6c0.9,0,1.2-0.3,1.2-1c0-0.1,0-0.2,0-0.4
			c-1-5.6-4.4-11.4-11.6-11.4c-7.6,0-11.7,5.1-12.8,12.8H294.4z"/>
	</g>
	<path d="M17.8,154.6c-0.9,0-1.5-0.8-1.5-1.6c0-0.9,0.5-1.7,1.4-1.7h20.7c0.9,0,1.4,0.8,1.4,1.7c0,0.9-0.6,1.6-1.4,1.6H30v24.7
		c0,1-0.8,1.5-1.8,1.5c-1,0-1.8-0.5-1.8-1.5v-24.7H17.8z"/>
	<path d="M40.6,161c0-1,0.7-1.5,1.8-1.5c0.9,0,1.7,0.5,1.7,1.5v0.8c0,0.5-0.2,1.2-0.2,1.8c0.6-1.8,2.5-4.1,5.8-4.3
		c0.3,0,0.6,0,0.8,0c0.6,0,1,0.1,1.5,0.2c0.9,0.1,1.2,0.6,1.2,1.4c0,0.2,0,0.4-0.1,0.6c-0.2,0.8-0.7,1.5-1.5,1.5c-0.1,0-0.2,0-0.3,0
		c-0.5-0.1-1-0.2-1.8-0.2c-1.6,0-2.9,0.9-3.8,2.1c-1,1.2-1.5,2.6-1.6,4.2v10.4c0,1-0.8,1.5-1.7,1.5c-1.1,0-1.8-0.5-1.8-1.5V161z"/>
	<path d="M69.1,165.7c0-2.5-1.4-3.6-4.3-3.6c-2.7,0-4.1,1.1-4.7,2.8c-0.3,0.7-0.8,1-1.5,1c-0.3,0-0.6,0-0.9-0.2
		c-0.7-0.2-1.2-0.8-1.2-1.4c0-0.2,0-0.3,0.1-0.5c0.4-1.2,1.4-2.3,2.2-2.9c1.3-1,3-1.7,6.1-1.7c5,0,7.5,2,7.5,6.4V176
		c0,1.3,0.2,2.6,0.4,3.3c0,0.1,0.1,0.3,0.1,0.4c0,0.6-0.6,1.1-1.5,1.2c-0.1,0-0.2,0-0.3,0c-0.8,0-1.4-0.2-1.6-0.9
		c-0.1-0.5-0.2-1.1-0.2-1.9c-1.4,1.6-3.4,3.1-7.2,3.1c-4.1,0-6.7-2.3-6.7-6.2c0-3.5,2.1-5.8,5.7-6.8c2.1-0.6,4-0.8,8.1-0.9V165.7z
		 M69.1,170c-4.4,0.1-6.5,0.5-8,1.2c-1.5,0.8-2.3,1.9-2.3,3.7c0,2,1.5,3.3,3.8,3.3c2.4,0,4.3-1.2,5.5-2.7c0.7-0.9,1-1.6,1-3V170z"/>
	<path d="M82.2,153.6c0,1.5-1.1,2.6-2.5,2.6c-1.4,0-2.6-1.1-2.6-2.6c0-1.4,1.1-2.5,2.6-2.5C81.1,151,82.2,152.1,82.2,153.6z M78,161
		c0-1,0.6-1.5,1.7-1.5c1,0,1.7,0.5,1.7,1.5v18.3c0,1-0.7,1.5-1.7,1.5c-1.1,0-1.7-0.5-1.7-1.5V161z"/>
	<path d="M104.1,179.3c0,1-0.8,1.5-1.7,1.5c-1,0-1.7-0.5-1.7-1.5v-12c0-3.2-1.3-5-4.1-5c-2,0-3.7,0.9-5,2.7
		c-0.9,1.3-1.3,2.4-1.3,3.8v10.5c0,1-0.7,1.5-1.7,1.5c-1.1,0-1.7-0.5-1.7-1.5V161c0-1,0.7-1.5,1.8-1.5c1,0,1.7,0.5,1.7,1.5v1
		c0,0.5-0.1,0.9-0.2,1.6c1.3-2.7,3.6-4.4,7.2-4.4c4.5,0,6.9,2.7,6.9,7.3V179.3z"/>
	<path d="M113.6,153.6c0,1.5-1.1,2.6-2.5,2.6c-1.4,0-2.6-1.1-2.6-2.6c0-1.4,1.1-2.5,2.6-2.5C112.5,151,113.6,152.1,113.6,153.6z
		 M109.3,161c0-1,0.6-1.5,1.7-1.5c1,0,1.7,0.5,1.7,1.5v18.3c0,1-0.7,1.5-1.7,1.5c-1.1,0-1.7-0.5-1.7-1.5V161z"/>
	<path d="M135.5,179.3c0,1-0.8,1.5-1.7,1.5c-1,0-1.7-0.5-1.7-1.5v-12c0-3.2-1.3-5-4.1-5c-2,0-3.7,0.9-5,2.7
		c-0.9,1.3-1.3,2.4-1.3,3.8v10.5c0,1-0.7,1.5-1.7,1.5c-1.1,0-1.7-0.5-1.7-1.5V161c0-1,0.7-1.5,1.8-1.5c1,0,1.7,0.5,1.7,1.5v1
		c0,0.5-0.1,0.9-0.2,1.6c1.3-2.7,3.6-4.4,7.2-4.4c4.5,0,6.9,2.7,6.9,7.3V179.3z"/>
	<path d="M155.4,160.9c0-0.8,0.5-1.4,1.6-1.4c1,0,1.6,0.5,1.6,1.5v17.4c0,8.7-4.6,10.6-9.5,10.6c-4.1,0-6.7-1.4-8.1-3.2
		c-0.2-0.3-0.3-0.5-0.3-0.8c0-0.5,0.3-1,0.7-1.3c0.3-0.2,0.7-0.4,1.1-0.4c0.4,0,0.8,0.2,1.1,0.5c1.4,1.6,3,2.4,5.3,2.4
		c4.7,0,6.4-2.4,6.4-7.9c0-0.5,0.1-1.3,0.2-1.8c-1.2,2.4-3.4,4-6.7,4c-5.3,0-9.1-4.1-9.1-10.4c0-6.5,3.4-10.8,9.1-10.8
		c3.4,0,5.6,1.9,6.6,4.3c0-0.4-0.2-1.1-0.2-1.5V160.9z M143.2,170.1c0,4.8,2.6,7.7,6.1,7.7c3.8,0,6.2-3.3,6.2-7.9
		c0-4.5-2.3-7.7-6.1-7.7C145.5,162.1,143.2,165.3,143.2,170.1z"/>
	<path d="M187.4,179c-0.4,1.4-1.3,1.8-2.5,1.8c-1.2,0-2.1-0.5-2.5-1.8l-7.1-25.9c0-0.2-0.1-0.4-0.1-0.5c0-0.9,0.7-1.3,1.6-1.5
		c0.2,0,0.3,0,0.5,0c0.7,0,1.4,0.3,1.6,1.2l4.7,17.8c0.5,2,1,5.5,1.4,7.4c0.3-2,0.9-5.3,1.4-7.3l4.5-17.4c0.3-1.2,1.2-1.7,2.4-1.7
		c1.2,0,2.1,0.5,2.4,1.7l4.5,17.4c0.5,1.9,1,5.4,1.3,7.3c0.4-2,0.9-5.5,1.4-7.3l4.7-17.9c0.3-0.9,0.9-1.2,1.7-1.2c0.2,0,0.3,0,0.5,0
		c0.9,0.2,1.6,0.6,1.6,1.4c0,0.2,0,0.3-0.1,0.5l-7.4,26c-0.4,1.3-1.3,1.8-2.5,1.8c-1.1,0-2.1-0.5-2.5-1.8l-4.3-16.9
		c-0.6-2.3-1-5.6-1.4-7.7c-0.4,2.1-0.8,5.3-1.4,7.6L187.4,179z"/>
	<path d="M232.8,179.3c0,1-0.8,1.5-1.7,1.5c-1,0-1.7-0.5-1.7-1.5v-12c0-3.2-1.3-5-4.1-5c-2.1,0-3.8,1-5,2.6
		c-0.9,1.3-1.4,2.4-1.4,3.8v10.5c0,1-0.6,1.5-1.6,1.5c-1.1,0-1.8-0.5-1.8-1.5v-26.8c0-1,0.7-1.5,1.8-1.5c1,0,1.6,0.5,1.6,1.5v9.4
		c0,0.5-0.2,1.4-0.2,1.9c1.2-2.7,3.3-4.7,7.3-4.7c4.5,0,6.9,2.7,6.9,7.3V179.3z"/>
	<path d="M240.4,170.8c0.1,4.6,2.4,7.5,6.4,7.5c2.7,0,4.2-1.4,5.1-3.4c0.3-0.7,0.8-0.9,1.4-0.9c0.3,0,0.5,0.1,0.8,0.2
		c0.6,0.2,1.2,0.6,1.2,1.3c0,0.2,0,0.5-0.2,0.7c-1.2,2.5-3.4,5-8.3,5c-6.2,0-9.8-4.4-9.8-10.9c0-6.5,3.4-11.1,9.5-11.1
		c5.5,0,8.6,4.3,9,9.2c0,0.1,0,0.2,0,0.3c0,1.4-0.7,2.1-1.9,2.1H240.4z M251.6,168.1c0.4,0,0.6-0.2,0.6-0.5c0,0,0-0.1,0-0.2
		c-0.5-2.7-2.1-5.4-5.5-5.4c-3.6,0-5.6,2.4-6.1,6.1H251.6z"/>
	<path d="M262,170.8c0.1,4.6,2.4,7.5,6.4,7.5c2.7,0,4.2-1.4,5.1-3.4c0.3-0.7,0.8-0.9,1.4-0.9c0.3,0,0.5,0.1,0.8,0.2
		c0.6,0.2,1.2,0.6,1.2,1.3c0,0.2,0,0.5-0.2,0.7c-1.2,2.5-3.4,5-8.3,5c-6.2,0-9.7-4.4-9.7-10.9c0-6.5,3.4-11.1,9.5-11.1
		c5.5,0,8.6,4.3,9,9.2c0,0.1,0,0.2,0,0.3c0,1.4-0.7,2.1-1.9,2.1H262z M273.2,168.1c0.4,0,0.6-0.2,0.6-0.5c0,0,0-0.1,0-0.2
		c-0.5-2.7-2.1-5.4-5.5-5.4c-3.6,0-5.6,2.4-6.1,6.1H273.2z"/>
	<path d="M281.2,152.6c0-1,0.7-1.5,1.7-1.5c1,0,1.7,0.5,1.7,1.5v26.8c0,1-0.7,1.5-1.7,1.5c-1.1,0-1.7-0.5-1.7-1.5V152.6z"/>
	<path d="M296,171.1c-4.6-0.9-6.6-2.5-6.6-6.1c0-3.4,2.9-5.8,7.8-5.8c4.2,0,6.9,1.8,7.8,4.5c0,0.2,0.1,0.3,0.1,0.5
		c0,0.7-0.6,1.2-1.3,1.4c-0.2,0-0.4,0.1-0.6,0.1c-0.7,0-1.4-0.3-1.5-1c-0.5-1.7-2.1-2.6-4.3-2.6c-3,0-4.5,1.2-4.5,2.8
		c0,1.7,0.7,2.5,3.9,3.2l2.3,0.5c4.9,1,6.9,2.4,6.9,6.4c0,3.6-3.1,6.3-8.4,6.3c-4.8,0-7.6-1.9-8.6-5.3c0-0.2-0.1-0.3-0.1-0.5
		c0-0.8,0.6-1.3,1.4-1.4c0.2,0,0.4-0.1,0.5-0.1c0.7,0,1.4,0.3,1.6,1c0.7,2.2,2.2,3.3,5.2,3.3c3,0,5-1.3,5-3.2c0-1.8-1-2.9-4.4-3.5
		L296,171.1z"/>
</g>
</svg>
